<svg id="Слой_1" data-name="Слой 1" xmlns="http://www.w3.org/2000/svg" viewBox="0 0 14.94 12.04"><defs><style>.cls-1{fill:#fbb03b;}</style></defs><path class="cls-1" d="M.43,9.45a4.43,4.43,0,0,0,.65.34A2.62,2.62,0,0,0,2.17,10a1.67,1.67,0,0,0,.9-.22,1.32,1.32,0,0,0,.53-.67,4.47,4.47,0,0,0,.25-1.17,16.86,16.86,0,0,0,.07-1.7V.08H5.85v6a22.38,22.38,0,0,1-.12,2.42,5.94,5.94,0,0,1-.49,1.89,2.82,2.82,0,0,1-1.11,1.23A3.78,3.78,0,0,1,2.18,12,3.74,3.74,0,0,1,1,11.86a3.2,3.2,0,0,1-1-.56Z"/><path class="cls-1" d="M13.73,3.19a2.51,2.51,0,0,0-.35-.31l-.63-.39a4.9,4.9,0,0,0-.81-.33A2.94,2.94,0,0,0,11.06,2a1.8,1.8,0,0,0-1.18.34,1.23,1.23,0,0,0-.4,1,1.1,1.1,0,0,0,.25.77,1.91,1.91,0,0,0,.76.48A12,12,0,0,0,11.75,5a7.62,7.62,0,0,1,1.7.7,2.81,2.81,0,0,1,1.1,1.06,3.43,3.43,0,0,1,.39,1.76,3.82,3.82,0,0,1-.3,1.59,2.79,2.79,0,0,1-.8,1.09,3.11,3.11,0,0,1-1.18.62,4.93,4.93,0,0,1-1.4.19,6.32,6.32,0,0,1-1.49-.18,7.13,7.13,0,0,1-1.42-.53,7.49,7.49,0,0,1-1.27-.83l.86-2a2.47,2.47,0,0,0,.45.39,4.58,4.58,0,0,0,.78.49,5.76,5.76,0,0,0,1,.41,3.77,3.77,0,0,0,1.1.17,1.93,1.93,0,0,0,1.19-.31,1.07,1.07,0,0,0,.4-.9,1.11,1.11,0,0,0-.32-.84,2.59,2.59,0,0,0-.89-.53c-.38-.15-.83-.31-1.36-.48a6.79,6.79,0,0,1-1.57-.72,2.54,2.54,0,0,1-.94-1,3.14,3.14,0,0,1-.31-1.49,3.9,3.9,0,0,1,.49-2A3.22,3.22,0,0,1,9.28.42,4,4,0,0,1,11.12,0a4.78,4.78,0,0,1,1.32.18,6.72,6.72,0,0,1,1.17.49,7.24,7.24,0,0,1,1,.65Z"/></svg>